<svg xmlns="http://www.w3.org/2000/svg" width="1280" height="720" viewBox="0 0 1280 720">
<rect width="1280" height="720" fill="#f8fafc"/>
<rect x="30" y="30" width="1220" height="660" rx="24" fill="#e2e8f0"/>
<rect x="50" y="50" width="1180" height="84" rx="16" fill="#0f172a"/>
<text x="80" y="88" font-size="30" font-family="Arial" fill="#ffffff" font-weight="700">Network Traffic Analysis: Suspicious DNS Activity</text>
<text x="80" y="118" font-size="18" font-family="Arial" fill="#cbd5e1">SOC Analyst, Cybersecurity Analyst</text>
<rect x="50" y="123" width="1180" height="48" rx="10" fill="#ffffff" stroke="#cbd5e1"/><text x="70" y="153" font-size="18" font-family="Arial" fill="#991b1b" font-weight="700">High</text><text x="190" y="153" font-size="18" font-family="Arial" fill="#0f172a">High volume of DNS queries to random subdomains</text><rect x="50" y="185" width="1180" height="48" rx="10" fill="#ffffff" stroke="#cbd5e1"/><text x="70" y="215" font-size="18" font-family="Arial" fill="#991b1b" font-weight="700">High</text><text x="190" y="215" font-size="18" font-family="Arial" fill="#0f172a">Repeated HTTP connections to newly observed domain</text><rect x="50" y="247" width="1180" height="48" rx="10" fill="#ffffff" stroke="#cbd5e1"/><text x="70" y="277" font-size="18" font-family="Arial" fill="#92400e" font-weight="700">Medium</text><text x="190" y="277" font-size="18" font-family="Arial" fill="#0f172a">User workstation had outdated browser plugin</text><rect x="50" y="309" width="1180" height="48" rx="10" fill="#ffffff" stroke="#cbd5e1"/><text x="70" y="339" font-size="18" font-family="Arial" fill="#92400e" font-weight="700">Medium</text><text x="190" y="339" font-size="18" font-family="Arial" fill="#0f172a">No DNS sinkhole or egress filtering in place</text><rect x="50" y="371" width="1180" height="48" rx="10" fill="#ffffff" stroke="#cbd5e1"/><text x="70" y="401" font-size="18" font-family="Arial" fill="#365314" font-weight="700">Low</text><text x="190" y="401" font-size="18" font-family="Arial" fill="#0f172a">Asset owner field missing in inventory</text>
<text x="50" y="650" font-size="18" font-family="Arial" fill="#475569">Synthetic portfolio screenshot for public GitHub documentation</text>
</svg>