<svg xmlns="http://www.w3.org/2000/svg" width="1400" height="820" viewBox="0 0 1400 820">
<rect width="1400" height="820" fill="#f3f4f6"/>
<rect x="20" y="20" width="1360" height="780" rx="18" fill="#ffffff" stroke="#cbd5e1"/>
<rect x="20" y="20" width="1360" height="52" rx="18" fill="#1f2937"/>
<text x="48" y="54" font-size="24" font-family="Arial" fill="#ffffff" font-weight="700">Wireshark DNS Filter View</text>
<rect x="40" y="92" width="1320" height="46" rx="8" fill="#e0f2fe" stroke="#38bdf8"/>
<text x="58" y="122" font-size="20" font-family="Consolas, monospace" fill="#0f172a">Display Filter: dns</text>
<rect x="40" y="160" width="70" height="52" fill="#e5e7eb" stroke="#9ca3af"/>
<text x="48" y="193" font-size="16" font-family="Arial" fill="#111827" font-weight="700">No.</text>
<rect x="110" y="160" width="120" height="52" fill="#e5e7eb" stroke="#9ca3af"/>
<text x="118" y="193" font-size="16" font-family="Arial" fill="#111827" font-weight="700">Time</text>
<rect x="230" y="160" width="180" height="52" fill="#e5e7eb" stroke="#9ca3af"/>
<text x="238" y="193" font-size="16" font-family="Arial" fill="#111827" font-weight="700">Source</text>
<rect x="410" y="160" width="180" height="52" fill="#e5e7eb" stroke="#9ca3af"/>
<text x="418" y="193" font-size="16" font-family="Arial" fill="#111827" font-weight="700">Destination</text>
<rect x="590" y="160" width="120" height="52" fill="#e5e7eb" stroke="#9ca3af"/>
<text x="598" y="193" font-size="16" font-family="Arial" fill="#111827" font-weight="700">Protocol</text>
<rect x="710" y="160" width="650" height="52" fill="#e5e7eb" stroke="#9ca3af"/>
<text x="718" y="193" font-size="16" font-family="Arial" fill="#111827" font-weight="700">Info</text>
<rect x="40" y="212" width="70" height="52" fill="#ffffff" stroke="#d1d5db"/>
<text x="48" y="244" font-size="15" font-family="Arial" fill="#111827">1</text>
<rect x="110" y="212" width="120" height="52" fill="#ffffff" stroke="#d1d5db"/>
<text x="118" y="244" font-size="15" font-family="Arial" fill="#111827">13:01:22</text>
<rect x="230" y="212" width="180" height="52" fill="#ffffff" stroke="#d1d5db"/>
<text x="238" y="244" font-size="15" font-family="Arial" fill="#111827">10.10.20.17</text>
<rect x="410" y="212" width="180" height="52" fill="#ffffff" stroke="#d1d5db"/>
<text x="418" y="244" font-size="15" font-family="Arial" fill="#111827">10.10.10.53</text>
<rect x="590" y="212" width="120" height="52" fill="#ffffff" stroke="#d1d5db"/>
<text x="598" y="244" font-size="15" font-family="Arial" fill="#111827">DNS</text>
<rect x="710" y="212" width="650" height="52" fill="#ffffff" stroke="#d1d5db"/>
<text x="718" y="244" font-size="15" font-family="Arial" fill="#111827">Standard query A a8d3k2.billing-update.test</text>
<rect x="40" y="264" width="70" height="52" fill="#fff7ed" stroke="#d1d5db"/>
<text x="48" y="296" font-size="15" font-family="Arial" fill="#111827">2</text>
<rect x="110" y="264" width="120" height="52" fill="#fff7ed" stroke="#d1d5db"/>
<text x="118" y="296" font-size="15" font-family="Arial" fill="#111827">13:01:23</text>
<rect x="230" y="264" width="180" height="52" fill="#fff7ed" stroke="#d1d5db"/>
<text x="238" y="296" font-size="15" font-family="Arial" fill="#111827">10.10.10.53</text>
<rect x="410" y="264" width="180" height="52" fill="#fff7ed" stroke="#d1d5db"/>
<text x="418" y="296" font-size="15" font-family="Arial" fill="#111827">10.10.20.17</text>
<rect x="590" y="264" width="120" height="52" fill="#fff7ed" stroke="#d1d5db"/>
<text x="598" y="296" font-size="15" font-family="Arial" fill="#111827">DNS</text>
<rect x="710" y="264" width="650" height="52" fill="#fff7ed" stroke="#d1d5db"/>
<text x="718" y="296" font-size="15" font-family="Arial" fill="#111827">Standard query response NXDOMAIN</text>
<rect x="40" y="316" width="70" height="52" fill="#ffffff" stroke="#d1d5db"/>
<text x="48" y="348" font-size="15" font-family="Arial" fill="#111827">3</text>
<rect x="110" y="316" width="120" height="52" fill="#ffffff" stroke="#d1d5db"/>
<text x="118" y="348" font-size="15" font-family="Arial" fill="#111827">13:01:34</text>
<rect x="230" y="316" width="180" height="52" fill="#ffffff" stroke="#d1d5db"/>
<text x="238" y="348" font-size="15" font-family="Arial" fill="#111827">10.10.20.17</text>
<rect x="410" y="316" width="180" height="52" fill="#ffffff" stroke="#d1d5db"/>
<text x="418" y="348" font-size="15" font-family="Arial" fill="#111827">10.10.10.53</text>
<rect x="590" y="316" width="120" height="52" fill="#ffffff" stroke="#d1d5db"/>
<text x="598" y="348" font-size="15" font-family="Arial" fill="#111827">DNS</text>
<rect x="710" y="316" width="650" height="52" fill="#ffffff" stroke="#d1d5db"/>
<text x="718" y="348" font-size="15" font-family="Arial" fill="#111827">Standard query A b7q9x1.billing-update.test</text>
<rect x="40" y="368" width="70" height="52" fill="#fff7ed" stroke="#d1d5db"/>
<text x="48" y="400" font-size="15" font-family="Arial" fill="#111827">4</text>
<rect x="110" y="368" width="120" height="52" fill="#fff7ed" stroke="#d1d5db"/>
<text x="118" y="400" font-size="15" font-family="Arial" fill="#111827">13:01:35</text>
<rect x="230" y="368" width="180" height="52" fill="#fff7ed" stroke="#d1d5db"/>
<text x="238" y="400" font-size="15" font-family="Arial" fill="#111827">10.10.10.53</text>
<rect x="410" y="368" width="180" height="52" fill="#fff7ed" stroke="#d1d5db"/>
<text x="418" y="400" font-size="15" font-family="Arial" fill="#111827">10.10.20.17</text>
<rect x="590" y="368" width="120" height="52" fill="#fff7ed" stroke="#d1d5db"/>
<text x="598" y="400" font-size="15" font-family="Arial" fill="#111827">DNS</text>
<rect x="710" y="368" width="650" height="52" fill="#fff7ed" stroke="#d1d5db"/>
<text x="718" y="400" font-size="15" font-family="Arial" fill="#111827">Standard query response NXDOMAIN</text>
<rect x="40" y="420" width="70" height="52" fill="#ffffff" stroke="#d1d5db"/>
<text x="48" y="452" font-size="15" font-family="Arial" fill="#111827">5</text>
<rect x="110" y="420" width="120" height="52" fill="#ffffff" stroke="#d1d5db"/>
<text x="118" y="452" font-size="15" font-family="Arial" fill="#111827">13:02:11</text>
<rect x="230" y="420" width="180" height="52" fill="#ffffff" stroke="#d1d5db"/>
<text x="238" y="452" font-size="15" font-family="Arial" fill="#111827">10.10.20.17</text>
<rect x="410" y="420" width="180" height="52" fill="#ffffff" stroke="#d1d5db"/>
<text x="418" y="452" font-size="15" font-family="Arial" fill="#111827">10.10.10.53</text>
<rect x="590" y="420" width="120" height="52" fill="#ffffff" stroke="#d1d5db"/>
<text x="598" y="452" font-size="15" font-family="Arial" fill="#111827">DNS</text>
<rect x="710" y="420" width="650" height="52" fill="#ffffff" stroke="#d1d5db"/>
<text x="718" y="452" font-size="15" font-family="Arial" fill="#111827">Standard query A cdn-update.invalid</text>
<rect x="40" y="472" width="70" height="52" fill="#f9fafb" stroke="#d1d5db"/>
<text x="48" y="504" font-size="15" font-family="Arial" fill="#111827">6</text>
<rect x="110" y="472" width="120" height="52" fill="#f9fafb" stroke="#d1d5db"/>
<text x="118" y="504" font-size="15" font-family="Arial" fill="#111827">13:02:12</text>
<rect x="230" y="472" width="180" height="52" fill="#f9fafb" stroke="#d1d5db"/>
<text x="238" y="504" font-size="15" font-family="Arial" fill="#111827">10.10.10.53</text>
<rect x="410" y="472" width="180" height="52" fill="#f9fafb" stroke="#d1d5db"/>
<text x="418" y="504" font-size="15" font-family="Arial" fill="#111827">10.10.20.17</text>
<rect x="590" y="472" width="120" height="52" fill="#f9fafb" stroke="#d1d5db"/>
<text x="598" y="504" font-size="15" font-family="Arial" fill="#111827">DNS</text>
<rect x="710" y="472" width="650" height="52" fill="#f9fafb" stroke="#d1d5db"/>
<text x="718" y="504" font-size="15" font-family="Arial" fill="#111827">Standard query response A 203.0.113.90</text>
<rect x="40" y="690" width="1320" height="72" rx="10" fill="#f8fafc" stroke="#cbd5e1"/>
<text x="58" y="720" font-size="17" font-family="Arial" fill="#334155">Lab note: This is a Wireshark-style screenshot generated from the included benign lab PCAP for public portfolio documentation.</text>
<text x="58" y="748" font-size="17" font-family="Arial" fill="#334155">Open captures/benign-dns-http-lab.pcap in Wireshark and apply the same filter to reproduce the analysis view.</text>
</svg>